# xmcd
#
# Track frame offsets:
#	150
#	21337
#	47448
#	103533
#	119199
#
# Disc length: 2288 seconds
#
# Revision: 0
# Processed by: cddbd v1.5.2PL0 Copyright (c) Steve Scherf et al.
# Submitted via: EasyCDDAExtractor 9.0.0.1
#
DISCID=3e08ee05
DTITLE=Blue Oyster Cult - The Cabaret San Jose 03-03-88 Disc 2
DYEAR=1988
DGENRE=Hard Rock
TTITLE0=Harvester Of Eyes
TTITLE1=Burnin' For You 
TTITLE2=Godzilla - Drum Solo - BÖC Chant - Drum Solo - Godzilla
TTITLE3=Don't Fear The Reaper
TTITLE4=Roadhouse Blues
EXTD=
EXTT0=
EXTT1=
EXTT2=
EXTT3=
EXTT4=
PLAYORDER=
